<svg id="Layer_1" data-name="Layer 1" xmlns="http://www.w3.org/2000/svg" viewBox="0 0 27.14 27.14"><defs><style>.cls-1{fill:#ffc067;}.cls-2{fill:#630;}</style></defs><rect class="cls-1" width="12.98" height="15.51"/><rect class="cls-1" x="14.16" width="12.98" height="9.05"/><rect class="cls-1" y="16.8" width="12.98" height="10.34"/><rect class="cls-1" x="14.16" y="10.34" width="12.98" height="16.8"/><path class="cls-2" d="M9.56,8v4.37H8.9V8.66h0l-1.05.69V8.72L8.92,8Z" transform="translate(-2.43 -2.43)"/><path class="cls-2" d="M21.64,9.17V8.69l1.48-1.53c.16-.17.29-.31.39-.44a1.21,1.21,0,0,0,.23-.36A.73.73,0,0,0,23.82,6a.7.7,0,0,0-.1-.38.73.73,0,0,0-.28-.24.87.87,0,0,0-.4-.09.78.78,0,0,0-.41.1.64.64,0,0,0-.27.27.88.88,0,0,0-.09.41h-.63a1.33,1.33,0,0,1,.18-.7,1.26,1.26,0,0,1,.51-.46,1.63,1.63,0,0,1,1.45,0A1.19,1.19,0,0,1,24.45,6a1.36,1.36,0,0,1-.09.48A2.19,2.19,0,0,1,24,7a7.92,7.92,0,0,1-.62.69l-.87.91v0h2v.57Z" transform="translate(-2.43 -2.43)"/><path class="cls-2" d="M9.06,26.46a2,2,0,0,1-.79-.15,1.27,1.27,0,0,1-.54-.42,1.05,1.05,0,0,1-.21-.62h.66a.55.55,0,0,0,.14.33.65.65,0,0,0,.31.22,1.12,1.12,0,0,0,.42.08,1.11,1.11,0,0,0,.46-.09.78.78,0,0,0,.31-.25.6.6,0,0,0,.11-.37.64.64,0,0,0-.11-.39.7.7,0,0,0-.32-.26,1.21,1.21,0,0,0-.52-.1H8.61V23.9H9a1.18,1.18,0,0,0,.43-.08.62.62,0,0,0,.28-.25.65.65,0,0,0,.11-.37.68.68,0,0,0-.09-.35.58.58,0,0,0-.26-.23.8.8,0,0,0-.39-.09,1,1,0,0,0-.39.08.62.62,0,0,0-.3.22.59.59,0,0,0-.13.34H7.61a1,1,0,0,1,.21-.62,1.34,1.34,0,0,1,.52-.42A1.77,1.77,0,0,1,9.07,22a1.67,1.67,0,0,1,.73.16,1.25,1.25,0,0,1,.47.44,1.12,1.12,0,0,1,.17.59,1,1,0,0,1-.21.62,1,1,0,0,1-.54.35v0a1.06,1.06,0,0,1,.67.34,1,1,0,0,1,.24.7,1.1,1.1,0,0,1-.2.64,1.44,1.44,0,0,1-.55.45A1.83,1.83,0,0,1,9.06,26.46Z" transform="translate(-2.43 -2.43)"/><path class="cls-2" d="M21.44,22.14v-.53l1.89-3h.42v.78h-.27l-1.35,2.14v0h2.59v.56Zm2.07.85V18.63h.63V23Z" transform="translate(-2.43 -2.43)"/></svg>